PathFileType	4	(X/Y/Z)	C:\Users\Admin\Desktop\Capture Files\05302019 Reflex Trials\StaticTrial_2-Unnamed.trc
DataRate	CameraRate	NumFrames	NumMarkers	Units	OrigDataRate	OrigDataStartFrame	OrigNumFrames
300.00	300.00	      9	0	mm	300.00	621	      2482
Frame#	Time	
		

621	2.067	579.24402	-624.22784	918.19238				497.87674	-499.52133	874.62598	862.45563	-849.45361	1269.60339	432.03857	-312.88623	455.61697	180.15071	-512.58905	611.01257	158.26959	-528.83307	409.38632	821.20691	-766.38452	1020.20355	290.31335	-498.68723	730.18646	895.33661	-726.04950	1114.36133	182.96860	-589.00726	724.95428	370.79745	-425.65704	714.92963	499.71100	-365.01907	739.26605				428.42307	-327.27359	639.87689	
622	2.070	579.24902	-624.26062	918.18713				497.87714	-499.52585	874.62439	862.45361	-849.36377	1269.62817	432.06662	-312.92273	455.60498	180.15536	-512.57654	611.01404	158.28377	-528.84344	409.38800	821.28119	-766.45935	1020.24725	291.11426	-499.31711	729.67407	895.31512	-725.97003	1114.38220	182.96356	-588.98767	724.96320	370.78946	-425.67154	714.92902	499.72073	-365.03488	739.26904				428.41199	-327.28250	639.86835	
623	2.073	579.24573	-624.23993	918.18243				497.86606	-499.52832	874.65607	862.60333	-849.65283	1269.69983	432.07211	-312.91721	455.61203	180.15181	-512.57959	611.02582	158.26411	-528.81726	409.40829	821.18439	-766.39771	1020.20917	290.31802	-498.69168	730.19147	895.31604	-726.01367	1114.39917	182.97983	-589.01672	724.95239	370.78915	-425.66415	714.93683	499.73611	-365.02829	739.29132				428.41025	-327.28821	639.88068	
624	2.077	579.25330	-624.24664	918.18707				497.87836	-499.50873	874.63684	862.31219	-849.25226	1269.54651	432.05954	-312.91306	455.61105	180.14255	-512.56757	611.03094	158.28336	-528.83582	409.40222	821.16278	-766.42023	1020.19885	290.32944	-498.67740	730.20984	895.25922	-725.91199	1114.36475	182.97881	-588.99280	724.98676	370.80664	-425.67682	714.93921	499.71869	-365.02911	739.27313				428.41257	-327.29715	639.86200	
625	2.080	579.26154	-624.24738	918.19006				497.87784	-499.52930	874.64581	862.55652	-849.60913	1269.64465	432.05554	-312.90787	455.62662	180.17188	-512.58356	611.03125	158.28752	-528.81494	409.40201	821.15137	-766.37732	1020.21014	291.11807	-499.28751	729.68060	895.26526	-725.94403	1114.37439	182.98666	-588.98816	724.97711	370.80200	-425.67380	714.95050	499.72931	-365.04526	739.28766				428.41489	-327.28979	639.87634	
626	2.083	579.25317	-624.25940	918.19556				497.89056	-499.53790	874.64508	862.47125	-849.51074	1269.55347	432.04837	-312.92279	455.64084	180.15587	-512.57019	611.04095	158.27785	-528.82690	409.40845	821.16913	-766.42542	1020.20233	290.32413	-498.67990	730.19720	895.30542	-725.96313	1114.35376	182.98422	-588.99738	724.98785	370.79468	-425.66333	714.94440	499.71597	-365.02411	739.28467				428.39667	-327.29709	639.88300	
627	2.087	579.26349	-624.26221	918.19116				497.89639	-499.53754	874.65155	862.12787	-848.99036	1269.49927	432.04608	-312.91797	455.64044	180.17096	-512.56732	611.03107	158.27986	-528.81061	409.41617	821.20966	-766.44141	1020.19446	290.33792	-498.68958	730.20630	895.32739	-726.00842	1114.36536	182.97931	-589.00690	724.99048	370.79581	-425.69101	714.95740	499.71429	-365.03281	739.28687				428.41531	-327.29489	639.88599	
628	2.090	579.26172	-624.27283	918.20679				497.87219	-499.55789	874.63385	862.43030	-849.46338	1269.60730	432.03824	-312.91412	455.64636	180.16713	-512.56201	611.04895	158.27286	-528.80511	409.41812	821.16156	-766.42371	1020.18396	290.36130	-498.68964	730.21124	895.29559	-725.96893	1114.36121	182.99258	-588.99536	724.98920	370.79492	-425.69391	714.95398	499.71634	-365.04889	739.28162				428.41342	-327.28497	639.88708	
629	2.093	579.26282	-624.28119	918.18896				497.88318	-499.55469	874.65747	862.42096	-849.41528	1269.57715	432.04675	-312.92136	455.64981	180.17043	-512.56946	611.03656	158.27843	-528.80371	409.41541	821.13409	-766.36523	1020.21246	290.35788	-498.68500	730.20923	895.45294	-726.26270	1114.51233	182.97409	-588.98218	724.99493	370.79974	-425.69373	714.94861	499.72409	-365.03842	739.28784				428.40823	-327.30249	639.88214	
